# xmcd
#
# Track frame offsets:
#	150
#	10807
#	27784
#	39334
#	50771
#	67005
#	85431
#	99236
#	114240
#	127070
#	144252
#	159774
#
# Disc length: 2393 seconds
#
# Revision: 0
# Processed by: cddbd v1.5.2PL0 Copyright (c) Steve Scherf et al.
# Submitted via: dBpowerAMP V4.0
#
DISCID=9209570c
DTITLE=Dollar Store - Money Music
DYEAR=2007
DGENRE=Heavy Country
TTITLE0=Money Music
TTITLE1=Scrap Truck
TTITLE2=Wasting Away
TTITLE3=Twisting in the Wind
TTITLE4=Work =Reward
TTITLE5=One Red Cent, One Thin Dime 
TTITLE6=Hurricane Charley
TTITLE7=Company Town
TTITLE8=In the Gravel Yard
TTITLE9=Reserve the Right
TTITLE10=Star
TTITLE11=Dying Light
EXTD=
EXTT0=
EXTT1=
EXTT2=
EXTT3=
EXTT4=
EXTT5=
EXTT6=
EXTT7=
EXTT8=
EXTT9=
EXTT10=
EXTT11=
PLAYORDER=
